<svg id="AP" xmlns="http://www.w3.org/2000/svg" width="747.344" height="800" viewBox="0 0 747.344 800">
  <defs>
    <style>
      .cls-1 {
        fill: #959595;
      }

      .cls-1, .cls-2, .cls-3 {
        fill-rule: evenodd;
      }

      .cls-2 {
        fill: #e5e5e5;
      }

      .cls-3 {
        fill: #556fb5;
      }

      .cls-4 {
        fill: #bcbcbc;
      }
    </style>
  </defs>
  <path id="圆角矩形_9" data-name="圆角矩形 9" class="cls-1" d="M175.807,117.519H623.949a106.7,106.7,0,0,1,106.7,106.7l42.68,501.492H26.427l42.68-501.492A106.7,106.7,0,0,1,175.807,117.519Z" transform="translate(-26)"/>
  <path id="圆角矩形_10" data-name="圆角矩形 10" class="cls-1" d="M186.009,181.008V53.232c0-29.4,24.172-53.24,53.99-53.24s53.991,23.836,53.991,53.24V181.008H186.009ZM261.6,53.232a21.6,21.6,0,0,0-43.193,0v85.184H261.6V53.232Z" transform="translate(-26)"/>
  <path id="矩形_32" data-name="矩形 32" class="cls-2" d="M133.127,202.879h533.5L698.64,651.021H101.117Z" transform="translate(-26)"/>
  <path id="AP-2" data-name="AP" class="cls-3" d="M343.466,336.035H293.45L225.1,519.427H270.11l13.337-40.013h70.022l13.338,40.013h45.848Zm-50.849,111.7,20.84-62.52a52.766,52.766,0,0,0,4.168-16.672h0.833q1.66,7.5,4.168,15.839l23.341,63.353h-53.35Zm280.088-54.184q-2.5-55.838-69.188-57.518H426.826V519.427h41.68V455.24h30.843q74.184,0.84,73.356-61.687h0Zm-43.347,1.667q-0.84,27.51-33.344,28.343H468.506V367.712h27.508q32.511,0.84,33.344,27.508h0Z" transform="translate(-26)"/>
  <rect id="圆角矩形_8" data-name="圆角矩形 8" class="cls-4" y="651" width="747" height="149" rx="74.5" ry="74.5"/>
</svg>
