<svg id="双开门关" xmlns="http://www.w3.org/2000/svg" width="708.594" height="799.75" viewBox="0 0 708.594 799.75">
  <defs>
    <style>
      .cls-1 {
        fill: #556fb5;
      }

      .cls-1, .cls-2 {
        fill-rule: evenodd;
      }

      .cls-2 {
        fill: #e5e5e5;
      }
    </style>
  </defs>
  <path id="矩形_39" data-name="矩形 39" class="cls-1" d="M86,0.236H714.607a40,40,0,0,1,40,40v720.04a40,40,0,0,1-40,40H86a40,40,0,0,1-40-40V40.236A40,40,0,0,1,86,.236Z" transform="translate(-46 -0.25)"/>
  <path id="矩形_39_拷贝" data-name="矩形 39 拷贝" class="cls-2" d="M100.287,34.523H700.319a20,20,0,0,1,20,20V745.988a20,20,0,0,1-20,20H100.287a20,20,0,0,1-20-20V54.523A20,20,0,0,1,100.287,34.523Z" transform="translate(-46 -0.25)"/>
  <path id="矩形_40" data-name="矩形 40" class="cls-1" d="M113,57H687a10,10,0,0,1,10,10V733a10,10,0,0,1-10,10H113a10,10,0,0,1-10-10V67A10,10,0,0,1,113,57ZM103,183h12v68H103V183Zm0,183h12v68H103V366Zm0,183h12v68H103V549ZM389,57h22V743H389V57ZM331,320h34V434H331V320Zm-46,22h46v24H285V342Zm150-22h34V434H435V320Zm34,22h46v24H469V342ZM685,183h12v68H685V183Zm0,183h12v68H685V366Zm0,183h12v68H685V549Z" transform="translate(-46 -0.25)"/>
</svg>
