<svg id="声光报警器" xmlns="http://www.w3.org/2000/svg" width="750" height="800" viewBox="0 0 750 800">
  <defs>
    <style>
      .cls-1 {
        fill: #ccc;
        stroke: #556fb5;
        stroke-width: 10px;
      }

      .cls-2, .cls-5 {
        fill: #ff6b77;
      }

      .cls-3, .cls-6 {
        fill: #556fb5;
      }

      .cls-4 {
        fill: #e5e5e5;
      }

      .cls-5, .cls-6 {
        fill-rule: evenodd;
      }
    </style>
  </defs>
  <rect id="矩形_44" data-name="矩形 44" class="cls-1" x="144" y="458" width="462" height="342"/>
  <path id="圆角矩形_21" data-name="圆角矩形 21" class="cls-2" d="M375,129h0A130,130,0,0,1,505,259V459a0,0,0,0,1,0,0H245a0,0,0,0,1,0,0V259A130,130,0,0,1,375,129Z"/>
  <circle id="矩形_44_拷贝_2" data-name="矩形 44 拷贝 2" class="cls-3" cx="375" cy="629" r="134"/>
  <circle id="矩形_44_拷贝_4" data-name="矩形 44 拷贝 4" class="cls-4" cx="375" cy="629" r="106"/>
  <circle id="矩形_44_拷贝_5" data-name="矩形 44 拷贝 5" class="cls-3" cx="375" cy="629" r="81"/>
  <circle id="矩形_44_拷贝_6" data-name="矩形 44 拷贝 6" class="cls-4" cx="375.5" cy="629.5" r="62.5"/>
  <circle id="矩形_44_拷贝_7" data-name="矩形 44 拷贝 7" class="cls-3" cx="375" cy="629" r="25"/>
  <path id="圆角矩形_22" data-name="圆角矩形 22" class="cls-5" d="M404-1A10,10,0,0,1,414,9V63a10,10,0,0,1-20,0V9A10,10,0,0,1,404-1Zm97.5,92.043a10,10,0,0,1-3.66-13.66l27-46.765a10,10,0,1,1,17.32,10l-27,46.765A10,10,0,0,1,501.5,91.043ZM573.957,153.5a10,10,0,0,1,3.66-13.66l46.766-27a10,10,0,1,1,10,17.32l-46.766,27A10,10,0,0,1,573.957,153.5ZM300,91.48a10.01,10.01,0,0,0,3.663-13.673L276.635,31A10.009,10.009,0,1,0,259.3,41.006l27.023,46.809A10.009,10.009,0,0,0,300,91.48ZM227.475,154a10.01,10.01,0,0,0-3.663-13.673L177.005,113.3A10.009,10.009,0,1,0,167,130.634L213.8,157.659A10.008,10.008,0,0,0,227.475,154Z" transform="translate(-26)"/>
  <path id="矩形_25" data-name="矩形 25" class="cls-6" d="M722.233,731v-22.54a105.777,105.777,0,0,0,0-158.924V527A123.642,123.642,0,0,1,722.233,731Zm-17.123-32.07V674.143a71.963,71.963,0,0,0,0-90.3V559.075A89.635,89.635,0,0,1,705.11,698.934ZM676,674.844V654.392a39.5,39.5,0,0,0,0-50.784V583.152A54.949,54.949,0,0,1,676,674.844Z" transform="translate(-26)"/>
  <path id="矩形_25_拷贝_2" data-name="矩形 25 拷贝 2" class="cls-6" d="M79.767,731v-22.54a105.777,105.777,0,0,1,0-158.924V527A123.642,123.642,0,0,0,79.767,731Zm17.123-32.07V674.143a71.961,71.961,0,0,1,0-90.3V559.075A89.634,89.634,0,0,0,96.89,698.934ZM126,674.844V654.392a39.5,39.5,0,0,1,0-50.784V583.152A54.949,54.949,0,0,0,126,674.844Z" transform="translate(-26)"/>
</svg>
