<svg id="微波红外" xmlns="http://www.w3.org/2000/svg" width="800" height="800" viewBox="0 0 800 800">
  <defs>
    <style>
      .cls-1 {
        fill: #556fb5;
        fill-rule: evenodd;
      }
    </style>
  </defs>
  <path id="椭圆_2" data-name="椭圆 2" class="cls-1" d="M220,800A133,133,0,0,1,87,667H43.447A44.447,44.447,0,0,1-1,622.553V177.447A44.447,44.447,0,0,1,43.447,133H87a133,133,0,0,1,266,0V667A133,133,0,0,1,220,800Zm0-644.5a45,45,0,1,0,45,45A45,45,0,0,0,220,155.5Zm0,133a45,45,0,1,0,45,45A45,45,0,0,0,220,288.5Zm0,133a45,45,0,1,0,45,45A45,45,0,0,0,220,421.5Zm0,133a45,45,0,1,0,45,45A45,45,0,0,0,220,554.5Z"/>
  <path id="矩形_25" data-name="矩形 25" class="cls-1" d="M643,694.325v-65.7a307.963,307.963,0,0,0,0-463.237V99.675C737.787,164.517,800,273.487,800,397S737.787,629.483,643,694.325Zm-50-93.48V528.586a209.467,209.467,0,0,0,0-263.2V193.18A260.978,260.978,0,0,1,593,600.845Zm-85-70.217V471.014a114.972,114.972,0,0,0,0-148.028V263.36A160.014,160.014,0,0,1,508,530.628Z"/>
</svg>
