<svg id="机枪" xmlns="http://www.w3.org/2000/svg" width="799.688" height="781.063" viewBox="0 0 799.688 781.063">
  <defs>
    <style>
      .cls-1 {
        fill: #bcbec2;
      }

      .cls-1, .cls-2, .cls-3 {
        fill-rule: evenodd;
      }

      .cls-2 {
        fill: #eee;
      }

      .cls-3 {
        fill: #556fb5;
      }
    </style>
  </defs>
  <path id="椭圆_3" data-name="椭圆 3" class="cls-1" d="M69.932,148.5C40.775,170.8-1.582,213.312.36,287.653S313.44,739.879,313.44,739.879s69.423,93.272,173.937,0c78.26-69.846,80.8-100.88,139.143-104.363S788.437,660.1,800.457,565.944L348.226,9.354S187.658-26.407,104.718,44.145L174.3,113.717S99.09,126.209,69.932,148.5Z" transform="translate(-0.313 -0.281)"/>
  <path id="椭圆_3_拷贝" data-name="椭圆 3 拷贝" class="cls-2" d="M452.591,531.161c78.458-53.689,141.52-82.453,173.929-34.791s-4.895,107.711-104.357,173.937c-79.79,53.125-141.529,82.447-173.937,34.782S349.525,601.674,452.591,531.161Z" transform="translate(-0.313 -0.281)"/>
  <path id="椭圆_4" data-name="椭圆 4" class="cls-3" d="M483.585,537.665c49.907-28.822,102.054-31.947,116.466-6.991s-14.373,68.548-64.288,97.371S433.7,659.994,419.294,635.036,433.668,566.481,483.585,537.665Z" transform="translate(-0.313 -0.281)"/>
</svg>
