<svg id="水位" xmlns="http://www.w3.org/2000/svg" width="800" height="800" viewBox="0 0 800 800">
  <defs>
    <style>
      .cls-1, .cls-3 {
        fill: #556fb5;
      }

      .cls-2 {
        fill: #e5e5e5;
      }

      .cls-3 {
        fill-rule: evenodd;
      }
    </style>
  </defs>
  <circle id="椭圆_11" data-name="椭圆 11" class="cls-1" cx="400" cy="400" r="400"/>
  <circle id="椭圆_11_拷贝" data-name="椭圆 11 拷贝" class="cls-2" cx="400.5" cy="400.5" r="312.5"/>
  <path id="矩形_21_拷贝_2" data-name="矩形 21 拷贝 2" class="cls-3" d="M487.175,321.883A65.245,65.245,0,0,1,436.9,215.047l50.269-93.209,50.26,93.191A65.245,65.245,0,0,1,487.175,321.883Zm-145.718,43.5c-27.626,0-50.022-21.148-50.022-47.236a45.124,45.124,0,0,1,8.01-25.624l42.064-83.744L383.865,293.1a45.092,45.092,0,0,1,7.615,25.042C391.48,344.233,369.084,365.381,341.457,365.381Z"/>
  <path id="形状_3" data-name="形状 3" class="cls-3" d="M130.493,404.529s31.31-27.146,69.6-26.1,61.542,43.5,86.995,43.5,43.345-43.5,91.346-43.5,60.668,43.5,104.394,43.5,55.55-43.5,117.444-43.5,69.6,39.148,69.6,39.148l-34.8,21.748s-12.506-17.4-34.8-17.4-83.339,43.5-117.444,43.5-85.464-43.5-104.394-43.5-56.993,43.5-91.346,43.5-74.392-43.5-86.995-43.5c-17.794,0-43.5,13.05-43.5,13.05Z"/>
  <path id="形状_3_拷贝" data-name="形状 3 拷贝" class="cls-3" d="M130.493,504.574s31.31-27.146,69.6-26.1,61.542,43.5,86.995,43.5,43.345-43.5,91.346-43.5,60.668,43.5,104.394,43.5,55.55-43.5,117.444-43.5,69.6,39.148,69.6,39.148l-34.8,21.749s-12.506-17.4-34.8-17.4-83.339,43.5-117.444,43.5-85.464-43.5-104.394-43.5-56.993,43.5-91.346,43.5-74.392-43.5-86.995-43.5c-17.794,0-43.5,13.049-43.5,13.049Z"/>
</svg>
