<svg id="浮球" xmlns="http://www.w3.org/2000/svg" width="800" height="782.5" viewBox="0 0 800 782.5">
  <defs>
    <style>
      .cls-1 {
        fill: #bcbcbc;
      }

      .cls-2 {
        fill: #e5e5e5;
      }

      .cls-2, .cls-3 {
        fill-rule: evenodd;
      }

      .cls-3 {
        fill: #556fb5;
      }

      .cls-4 {
        fill: #959595;
      }
    </style>
  </defs>
  <rect id="矩形_34" data-name="矩形 34" class="cls-1" x="193" width="414" height="261" rx="20" ry="20"/>
  <path id="矩形_34_拷贝_2" data-name="矩形 34 拷贝 2" class="cls-2" d="M233.049,73.17H566.566V201.446H233.049V73.17Z" transform="translate(0 -9)"/>
  <path id="矩形_35" data-name="矩形 35" class="cls-3" d="M271.532,111.653h51.31v51.31h-51.31v-51.31Zm102.621,0h51.31v51.31h-51.31v-51.31Zm102.62,0h51.31v51.31h-51.31v-51.31Z" transform="translate(0 -9)"/>
  <path id="矩形_34_拷贝" data-name="矩形 34 拷贝" class="cls-4" d="M329,260H471a0,0,0,0,1,0,0V498a15,15,0,0,1-15,15H344a15,15,0,0,1-15-15V260A0,0,0,0,1,329,260Z"/>
  <path id="形状_5_拷贝_2" data-name="形状 5 拷贝 2" class="cls-3" d="M5.981,470.824s10.456-9.135,25.655,0,60.329,38.483,102.62,38.483,78.157-38.483,128.276-38.483,47.325,38.483,128.276,38.483,75.376-38.483,141.1-38.483,60.472,38.483,128.275,38.483,98.652-38.483,128.276-38.483c0,0,25.967,7.67,0,25.656s-49.752,38.482-128.276,38.482S590.147,496.48,531.911,496.48s-55.279,38.482-141.1,38.482S307.621,496.48,262.532,496.48s-54.273,38.482-128.276,38.482S5.981,496.48,5.981,496.48-7.438,484.243,5.981,470.824Zm0,128.276s10.456-9.135,25.655,0,60.329,38.483,102.62,38.483S212.413,599.1,262.532,599.1s47.325,38.483,128.276,38.483,75.376-38.483,141.1-38.483,60.472,38.483,128.275,38.483S758.838,599.1,788.462,599.1c0,0,25.967,7.67,0,25.655s-49.752,38.483-128.276,38.483-70.039-38.483-128.275-38.483-55.279,38.483-141.1,38.483-83.187-38.483-128.276-38.483-54.273,38.483-128.276,38.483S5.981,624.755,5.981,624.755-7.438,612.519,5.981,599.1Zm0,128.276s10.456-9.136,25.655,0,60.329,38.482,102.62,38.482,78.157-38.482,128.276-38.482,47.325,38.482,128.276,38.482,75.376-38.482,141.1-38.482,60.472,38.482,128.275,38.482,98.652-38.482,128.276-38.482c0,0,25.967,7.669,0,25.655s-49.752,38.482-128.276,38.482-70.039-38.482-128.275-38.482-55.279,38.482-141.1,38.482-83.187-38.482-128.276-38.482-54.273,38.482-128.276,38.482S5.981,753.031,5.981,753.031-7.438,740.794,5.981,727.376Z" transform="translate(0 -9)"/>
</svg>
