<svg id="温湿度传感器" xmlns="http://www.w3.org/2000/svg" width="548" height="632" viewBox="0 0 548 632">
  <defs>
    <style>
      .cls-1 {
        fill: #d9d9d9;
      }

      .cls-2 {
        fill: #556fb5;
        fill-rule: evenodd;
      }
    </style>
  </defs>
  <rect id="圆角矩形_3" data-name="圆角矩形 3" class="cls-1" width="548" height="632" rx="100" ry="100"/>
  <path id="矩形_21_拷贝" data-name="矩形 21 拷贝" class="cls-2" d="M569,421V401h42v20H569Zm0-62h21v20H569V359Zm0-42h20v20H569V317ZM495,548a72.989,72.989,0,0,1-52-124.219V264a52,52,0,0,1,104,0V423.781A72.989,72.989,0,0,1,495,548Zm30.985-114.767V267.2c0-19.45-13.88-35.216-31-35.216s-31,15.766-31,35.216V433.245A52.008,52.008,0,1,0,525.985,433.233Zm-31,73.353A31.593,31.593,0,0,1,485,445.02V305a10,10,0,0,1,20,0V445.029A31.593,31.593,0,0,1,494.987,506.586ZM286.65,515.338L451.044,114.065l14.222,6.3L300.873,521.633ZM368,191a31.993,31.993,0,0,1-27.07-49.056L368,84.992l27.095,57A31.994,31.994,0,0,1,368,191Zm-30.5,96a74,74,0,1,1-143.295-25.987h-0.217l1.262-2.652c0.861-2.049,1.819-4.045,2.854-5.995L263.5,115l65.413,137.4c1.025,1.934,1.976,3.913,2.83,5.944l1.27,2.668H332.8A73.8,73.8,0,0,1,337.5,287Z" transform="translate(-127)"/>
</svg>
