<svg id="温感" xmlns="http://www.w3.org/2000/svg" width="800" height="420" viewBox="0 0 800 420">
  <defs>
    <style>
      .cls-1 {
        fill: #556fb5;
      }

      .cls-1, .cls-2 {
        fill-rule: evenodd;
      }

      .cls-2 {
        fill: #fff;
      }
    </style>
  </defs>
  <path id="矩形_29" data-name="矩形 29" class="cls-1" d="M797.889,167.354C794.377,178.109,786.32,187.619,776,192l-73.576,81.491C692.424,283.5,677.934,298.813,663,307v11a13.842,13.842,0,0,1-14.234,14.1,14.643,14.643,0,0,1-14.634-14.652v-4.884H619.5l-34.147,68.374c-11.006,27.55-36.984,39.071-58.536,39.071H273.157c-21.552,0-49.18-14.827-58.536-39.071l-34.146-68.374H165.841v4.884A14.643,14.643,0,0,1,151.206,332.1,13.819,13.819,0,0,1,137,318V307c-14.093-7.623-27.68-21.722-39.452-33.509L24,192A38.9,38.9,0,0,1,2.083,168.354l-0.716-2.307a38.781,38.781,0,0,1-1.38-9.768V39.067A39.048,39.048,0,0,1,39.012,0H760.961a39.048,39.048,0,0,1,39.024,39.071V156.279a38.792,38.792,0,0,1-1.38,9.768ZM518,362h50V312H518v50Zm-30,0-20-50H333l-19,50H488Zm-253.992-.006h50V312h-50v49.994ZM771,96.985H29.006V107H771V96.985Z"/>
  <path id="矩形_28" data-name="矩形 28" class="cls-2" d="M362,163h78v20H362V163Zm29,20h20v78H391V183Z"/>
</svg>
