<svg id="灭火器" xmlns="http://www.w3.org/2000/svg" width="516.562" height="799.344" viewBox="0 0 516.562 799.344">
  <defs>
    <style>
      .cls-1 {
        fill: #ff6b77;
      }

      .cls-1, .cls-2 {
        fill-rule: evenodd;
      }

      .cls-2 {
        fill: #f2f2f2;
      }
    </style>
  </defs>
  <path id="矩形_31" data-name="矩形 31" class="cls-1" d="M643.768,400.853H584.733a14.758,14.758,0,0,1-14.758-14.759V268.024c0-19.25,12.359-44.524,29.517-54.515V194.231a118.07,118.07,0,0,0-118.07-118.07H447.233a36.578,36.578,0,0,1-5.511,7.276A40.526,40.526,0,0,1,437,87v80.64A147.635,147.635,0,0,1,555.216,312.3V769.82A29.517,29.517,0,0,1,525.7,799.337H245.283a29.517,29.517,0,0,1-29.517-29.517V312.3A147.633,147.633,0,0,1,334,167.637V78L201.047,154.7a22.138,22.138,0,1,1-22.138-38.344L274.084,61.4H164.11a22.138,22.138,0,0,1,0-44.276H355.973a17.8,17.8,0,0,1,5.081,1.026c0.4,0.092.792,0.126,1.188,0.24,0.154,0.05.328,0.047,0.482,0.1a36.506,36.506,0,0,1,5.946-8.1,36.9,36.9,0,0,1,52.18,0l20.872,20.872a36.489,36.489,0,0,1,9.048,15.386h30.652A147.587,147.587,0,0,1,629.009,194.231v19.278c17.158,9.991,29.518,35.265,29.518,54.515v118.07A14.759,14.759,0,0,1,643.768,400.853ZM368.67,62.566a29.573,29.573,0,0,1-2.579-3.158L337,76h45Z" transform="translate(-141.969)"/>
  <path id="矩形_30" data-name="矩形 30" class="cls-2" d="M216,314H555v15H216V314Zm-0.015,132s84.469,14.714,169.2,14.714C470.458,460.718,556,446,556,446v88.284S471.025,549,386.037,549c-85.018,0-170.052-14.714-170.052-14.714V446Z" transform="translate(-141.969)"/>
</svg>
