<svg id="烟感" xmlns="http://www.w3.org/2000/svg" width="799.844" height="713.344" viewBox="0 0 799.844 713.344">
  <defs>
    <style>
      .cls-1 {
        fill: #556fb5;
        fill-rule: evenodd;
      }
    </style>
  </defs>
  <path id="圆角矩形_7" data-name="圆角矩形 7" class="cls-1" d="M756.6,194.418H702.54l-66.025,194.6c-17.293,36.626-63.723,43.244-88.033,43.244h-297.3c-24.31,0-73.333-1.521-88.033-43.244L97.12,194.418H43.065A43.244,43.244,0,0,1-.179,151.173V43.063A43.244,43.244,0,0,1,43.065-.182H756.6A43.244,43.244,0,0,1,799.84,43.063v108.11A43.244,43.244,0,0,1,756.6,194.418Zm-497.31,10.811H151.176L194.42,367.4h86.488Zm227.033,0H313.342V367.4H486.319V205.229Zm54.055,0L518.752,367.4h86.489l43.244-162.166H540.374Zm32.433,151.355L605.241,216.04h21.622L594.43,356.584H572.807Zm-43.244,0L562,216.04h21.622L551.185,356.584H529.563Zm-162.166,0H345.775V216.04H367.4V356.584Zm43.244,0H389.019V216.04h21.622V356.584Zm43.245,0H432.263V216.04h21.623V356.584ZM194.42,216.04l32.433,140.544H205.231L172.8,216.04H194.42Zm43.244,0L270.1,356.584H248.475L216.042,216.04h21.622Z"/>
  <path id="形状_2" data-name="形状 2" class="cls-1" d="M259.286,497.128s35.547,38.69,21.622,75.677-32.433,43.657-32.433,75.678c0,32.047,43.245,64.866,43.245,64.866s-30.018-47-10.812-75.677c19.756-29.493,32.434-44.17,32.434-75.678S281.041,497.128,259.286,497.128Zm118.922,0s35.546,38.69,21.622,75.677S367.4,616.462,367.4,648.483c0,32.047,43.244,64.866,43.244,64.866s-30.017-47-10.811-75.677c19.756-29.493,32.433-44.17,32.433-75.678S399.962,497.128,378.208,497.128Zm118.922,0s35.546,38.69,21.622,75.677-32.433,43.657-32.433,75.678c0,32.047,43.244,64.866,43.244,64.866s-30.017-47-10.811-75.677c19.755-29.493,32.433-44.17,32.433-75.678S518.884,497.128,497.13,497.128Z"/>
</svg>
